HIERARCHY
ROOT Hips
{
	OFFSET 0.000000 0.000000 0.000000
	CHANNELS 6 Xposition Yposition Zposition Zrotation Yrotation Xrotation 
	JOINT LHipJoint
	{
		OFFSET 0.000000 0.000000 0.000000
		CHANNELS 3 Zrotation Yrotation Xrotation
		JOINT LeftUpLeg
		{
			OFFSET 1.363060 -1.794630 0.839290
			CHANNELS 3 Zrotation Yrotation Xrotation
			JOINT LeftLeg
			{
				OFFSET 2.448110 -6.726130 0.000000
				CHANNELS 3 Zrotation Yrotation Xrotation
				JOINT LeftFoot
				{
					OFFSET 2.562200 -7.039590 0.000000
					CHANNELS 3 Zrotation Yrotation Xrotation
					JOINT LeftToeBase
					{
						OFFSET 0.157640 -0.433110 2.322550
						CHANNELS 3 Zrotation Yrotation Xrotation
						End Site
						{
							OFFSET 0.000000 0.000000 0.000000
						}
					}
				}
			}
		}
	}
	JOINT RHipJoint
	{
		OFFSET 0.000000 0.000000 0.000000
		CHANNELS 3 Zrotation Yrotation Xrotation
		JOINT RightUpLeg
		{
			OFFSET -1.305520 -1.794630 0.839290
			CHANNELS 3 Zrotation Yrotation Xrotation
			JOINT RightLeg
			{
				OFFSET -2.542530 -6.985550 0.000000
				CHANNELS 3 Zrotation Yrotation Xrotation
				JOINT RightFoot
				{
					OFFSET -2.568260 -7.056230 0.000000
					CHANNELS 3 Zrotation Yrotation Xrotation
					JOINT RightToeBase
					{
						OFFSET -0.164730 -0.452590 2.363150
						CHANNELS 3 Zrotation Yrotation Xrotation
						End Site
						{
							OFFSET 0.000000 0.000000 0.000000
						}
					}
				}
			}
		}
	}
}
MOTION
Frames: 30
Frame Time: 0.008333
2.747209 16.461265 -2.215737 97.077046 -73.862155 -103.390554 -2.490907 -5.453718 -0.254072 -4.741939 -8.671946 -133.461971 0.560008 6.613472 74.300253 2.839482 10.964941 -13.967467 -0.640600 0.000000 -37.441800 13.915869 3.228825 -6.000862 -5.980591 1.493326 -4.229389 -0.059626 -4.078847 44.140027 -2.738954 -11.382841 -20.411279 2.266400 0.000000 -58.668999
2.762701 16.452297 -2.215342 97.405484 -74.110396 -103.603061 -2.705560 -5.372769 0.367259 -3.429905 -7.760608 -130.653546 -0.470893 5.820450 65.776559 2.898617 10.678880 -13.743018 -0.509401 -0.000000 -37.644900 13.890991 3.288889 -6.210014 -5.610159 1.660853 -4.137048 -0.027215 -4.131418 44.199846 -2.782530 -11.578615 -20.510227 2.319300 0.000000 -58.210501
2.779665 16.450599 -2.216901 97.702933 -74.344849 -103.771423 -2.913421 -5.297682 1.101985 -1.867571 -6.780682 -127.140263 -1.496012 4.777658 55.908664 2.861476 10.066639 -13.102987 -0.281900 0.000000 -38.339900 13.877921 3.370576 -6.458151 -5.288095 1.761359 -3.956783 0.005780 -4.176197 44.086088 -2.813979 -11.717526 -20.500920 2.337200 0.000000 -57.817300
2.797279 16.456820 -2.221043 98.133898 -74.482796 -104.124208 -3.066932 -5.282101 1.909247 0.025055 -5.598918 -122.643826 -2.410332 3.389195 44.566747 2.728294 9.398028 -11.711318 0.074300 0.000000 -39.602700 13.884270 3.476746 -6.739866 -5.091367 1.822905 -3.603774 0.034961 -4.215102 43.770367 -2.826091 -11.763364 -20.364978 2.308200 0.000000 -57.547400
2.814178 16.471103 -2.227530 98.981027 -74.419008 -105.074901 -3.103944 -5.422376 2.654861 2.419788 -4.012508 -116.778475 -2.986013 1.632337 31.891276 2.541798 9.166224 -9.235077 0.596400 0.000000 -41.112600 13.906552 3.594296 -7.026814 -5.084510 1.913566 -2.932094 0.055449 -4.252154 43.220741 -2.813323 -11.687160 -20.084640 2.223101 0.000000 -57.458700
2.828399 16.492658 -2.234277 100.637885 -74.075162 -107.214922 -3.013328 -5.807261 3.094056 5.549503 -1.901748 -109.278242 -2.935466 -0.220712 18.741430 2.388771 9.910996 -5.561602 1.362701 -0.000000 -42.106200 13.921113 3.680853 -7.255901 -5.231346 2.170767 -1.745931 0.066991 -4.293420 42.401338 -2.779284 -11.502724 -19.646336 2.083800 0.000000 -57.559900
2.836840 16.520112 -2.235960 103.539270 -73.478138 -111.127638 -2.916978 -6.380777 3.016070 9.125075 0.456573 -100.684287 -2.327888 -1.577960 6.986632 2.263475 11.353989 -1.182061 2.379400 0.000000 -41.906000 13.877592 3.674799 -7.361199 -5.293842 2.799751 0.112986 0.082995 -4.343534 41.276184 -2.744925 -11.302269 -19.048365 1.908499 0.000000 -57.758600
2.836471 16.552590 -2.227935 107.659753 -72.717565 -116.682921 -2.947807 -6.921370 2.459274 11.165863 2.547323 -92.992881 -1.869780 -2.130314 -1.292453 1.865480 11.193631 2.850770 3.040900 0.000000 -41.243900 13.734285 3.554470 -7.315961 -5.006198 3.871651 2.523245 0.118915 -4.387103 39.863127 -2.732564 -11.187083 -18.306974 1.718400 -0.000000 -57.937600
2.827712 16.591078 -2.214666 111.927807 -71.816954 -122.460690 -3.035214 -7.291550 1.692393 10.196742 4.374787 -87.709010 -1.984665 -2.196034 -6.009724 1.075432 7.879145 6.115912 2.625800 -0.000000 -41.793900 13.564278 3.386622 -7.127798 -4.582185 5.051028 4.972348 0.157284 -4.388965 38.298760 -2.720278 -11.072351 -17.449763 1.509100 0.000000 -58.179200
2.812728 16.636127 -2.201578 115.456011 -70.845704 -127.286590 -3.103562 -7.477397 1.018475 7.827325 6.056726 -84.611738 -2.351434 -2.064722 -7.784899 0.251801 3.223473 8.367510 1.491700 -0.000000 -43.618900 13.455788 3.229316 -6.842210 -4.340803 6.026291 7.034327 0.177570 -4.340118 36.725281 -2.677249 -10.836543 -16.519784 1.279300 -0.000000 -58.585900
2.792218 16.686539 -2.188577 118.234993 -69.937157 -131.006625 -3.203540 -7.488252 0.638372 5.875026 7.463902 -83.800847 -2.679835 -1.737954 -5.590415 -0.240328 -0.833168 8.530463 0.268100 0.000000 -45.839000 13.406804 3.088028 -6.513764 -4.276022 6.772884 8.564719 0.183272 -4.253425 35.216517 -2.606338 -10.499122 -15.573601 1.049400 -0.000000 -59.090400
2.766655 16.740523 -2.174295 120.518236 -69.119704 -133.949050 -3.359725 -7.447079 0.435546 4.937749 8.588840 -82.149667 -2.805559 -1.502188 -4.438761 -0.345926 -3.131835 9.250484 -0.562500 -0.000000 -47.786300 13.356070 2.930646 -6.119125 -4.262284 7.385784 9.632477 0.174533 -4.135588 33.802111 -2.528700 -10.159444 -14.650608 0.838600 0.000000 -59.565500
2.737048 16.796369 -2.159916 122.461145 -68.408585 -136.285329 -3.603048 -7.362481 0.421038 5.323569 9.282361 -79.590259 -2.701055 -1.333104 -4.079573 -0.296145 -3.207120 10.348533 -0.682100 0.000000 -49.231400 13.299800 2.762388 -5.684264 -4.239902 7.954699 10.321630 0.156707 -4.001862 32.490274 -2.462420 -9.894580 -13.780636 0.654300 0.000000 -59.934000
2.705200 16.852143 -2.147283 124.066865 -67.782221 -138.096908 -3.916257 -7.233477 0.531417 6.684567 9.454196 -76.219533 -2.429932 -1.210480 -4.334717 -0.164919 -1.315756 11.797878 -0.066000 -0.000000 -50.047900 13.254729 2.587897 -5.224347 -4.230637 8.527672 10.755715 0.130598 -3.865316 31.275014 -2.416639 -9.739467 -12.978621 0.494400 0.000000 -60.177300
2.672127 16.905864 -2.135984 125.359225 -67.216923 -139.543224 -4.247085 -7.063239 0.584392 7.497169 9.442003 -72.269109 -2.209788 -1.147799 -5.696034 0.030587 0.835352 14.037628 0.688900 -0.000000 -50.058600 13.210233 2.390757 -4.719898 -4.212885 9.145269 11.083866 0.096033 -3.727031 30.136681 -2.399670 -9.729426 -12.249361 0.355100 -0.000000 -60.279300
2.639586 16.955630 -2.128331 126.254434 -66.684768 -140.587710 -4.575725 -6.851868 0.622173 8.137945 9.148713 -68.528653 -2.001047 -1.057180 -6.361094 0.390008 3.521750 16.026579 1.686300 0.000000 -49.344700 13.207923 2.199753 -4.230584 -4.279435 9.787220 11.427764 0.054623 -3.603492 29.054932 -2.406426 -9.828043 -11.593720 0.228300 -0.000000 -60.280100
2.607582 16.999690 -2.121709 126.927925 -66.180838 -141.463583 -4.869432 -6.616553 0.600124 7.844304 8.992470 -66.771329 -1.900057 -0.827095 -3.577853 0.650507 5.423601 16.162213 2.389800 0.000000 -47.754800 13.214224 2.018912 -3.776627 -4.320681 10.500014 11.915087 0.015271 -3.492202 27.997060 -2.444738 -10.066570 -11.012487 0.109800 0.000000 -60.146299
2.576461 17.036810 -2.115375 127.421270 -65.708001 -142.275943 -5.140692 -6.381961 0.468721 7.024090 8.971140 -65.089130 -1.846452 -0.598619 -0.606425 0.865788 6.942091 16.213531 2.930900 0.000000 -45.382600 13.220412 1.846920 -3.366914 -4.308197 11.252369 12.624196 -0.016526 -3.397226 26.947530 -2.511844 -10.427445 -10.503815 -0.004900 -0.000000 -59.880000
2.546958 17.066509 -2.109721 127.684338 -65.310928 -142.939546 -5.403736 -6.145872 0.296103 6.240954 8.822903 -63.080689 -1.778904 -0.404593 1.994871 1.080308 8.571298 16.356394 3.526100 -0.000000 -42.787500 13.236885 1.695147 -3.032499 -4.278207 11.940766 13.507383 -0.038588 -3.320987 25.918179 -2.594333 -10.842884 -10.070241 -0.115700 -0.000000 -59.513600
2.519100 17.089119 -2.102673 127.829801 -65.045553 -143.522698 -5.673482 -5.907452 0.114026 5.516483 8.559429 -60.898423 -1.710922 -0.243546 4.266695 1.263143 10.044675 16.436638 4.053199 0.000000 -40.054400 13.232533 1.563438 -2.778280 -4.140366 12.534675 14.523316 -0.044219 -3.255929 24.898771 -2.692293 -11.315461 -9.706591 -0.223200 0.000000 -59.043900
2.493786 17.105357 -2.096044 127.748489 -64.945106 -143.857128 -5.951009 -5.663201 -0.017618 5.048702 7.945954 -58.468454 -1.626970 -0.129909 6.014391 1.435643 11.592996 16.522860 4.621400 -0.000000 -37.928400 13.229036 1.455967 -2.613282 -3.996934 12.910301 15.543011 -0.040785 -3.199642 23.920183 -2.783883 -11.744299 -9.409882 -0.321501 -0.000000 -58.541000
2.471204 17.116294 -2.089494 127.493208 -65.017980 -143.964477 -6.235017 -5.412879 -0.089733 4.714590 7.033762 -55.995474 -1.548135 -0.048744 7.425379 1.577368 12.997736 16.495117 5.122300 0.000000 -36.491200 13.217543 1.367558 -2.525252 -3.847094 13.044189 16.496044 -0.030247 -3.146058 22.989893 -2.860104 -12.093904 -9.169572 -0.407300 0.000000 -58.041500
2.451892 17.122895 -2.084062 127.043458 -65.238157 -143.811847 -6.515715 -5.155611 -0.098801 4.445155 5.837898 -53.558594 -1.482224 0.008641 8.593654 1.689173 14.237160 16.341291 5.539800 0.000000 -35.956100 13.211679 1.293937 -2.501413 -3.761582 12.908694 17.309116 -0.019352 -3.093585 22.129702 -2.905387 -12.297435 -8.975725 -0.475000 -0.000000 -57.608300
2.435240 17.126326 -2.078318 126.546838 -65.563740 -143.551129 -6.789623 -4.893646 -0.076663 4.071990 4.607049 -51.335933 -1.448723 0.063878 9.795936 1.749654 15.035187 15.912262 5.717700 0.000000 -35.699500 13.193336 1.225512 -2.513160 -3.692506 12.577447 17.975453 -0.005463 -3.038010 21.338171 -2.920576 -12.365565 -8.816168 -0.524900 0.000000 -57.255300
2.421212 17.127427 -2.073603 125.982269 -65.930924 -143.169104 -7.046307 -4.623961 -0.032186 3.589269 3.367694 -49.258764 -1.440304 0.117120 11.006866 1.777570 15.550262 15.332121 5.744200 0.000000 -36.048600 13.188736 1.159092 -2.546401 -3.731827 12.062322 18.459082 0.004893 -2.982881 20.644600 -2.892937 -12.239544 -8.685989 -0.552600 0.000000 -57.042101
2.408699 17.127031 -2.068052 125.527333 -66.287943 -142.860263 -7.289427 -4.347078 -0.001155 2.922175 2.359603 -47.386119 -1.459885 0.181727 12.387694 1.765750 15.661210 14.554141 5.560200 0.000000 -36.416500 13.180103 1.087780 -2.573930 -3.811428 11.474707 18.788388 0.017744 -2.927009 20.049277 -2.831188 -11.960535 -8.581178 -0.560801 0.000000 -56.952500
2.396850 17.125481 -2.061646 125.242456 -66.584006 -142.697364 -7.518866 -4.059535 0.002507 2.096950 1.645458 -45.648843 -1.495547 0.257723 13.910697 1.730084 15.510748 13.682326 5.255400 -0.000000 -36.777599 13.175130 1.010077 -2.582623 -3.941881 10.875448 18.974448 0.033327 -2.873679 19.569834 -2.737289 -11.533088 -8.505003 -0.549700 0.000000 -56.987300
2.384618 17.123175 -2.053437 125.225249 -66.790504 -142.780960 -7.739349 -3.759885 -0.027612 1.176756 1.262641 -43.996090 -1.532594 0.344894 15.541119 1.686118 15.234181 12.800295 4.908700 -0.000000 -36.994801 13.166386 0.925594 -2.561358 -4.080696 10.342745 19.041664 0.055354 -2.824287 19.210584 -2.621793 -11.001527 -8.462632 -0.522501 -0.000000 -57.111500
2.370980 17.120300 -2.042377 125.552228 -66.900483 -143.186591 -7.956377 -3.449140 -0.091509 0.238195 1.211792 -42.395365 -1.558246 0.442107 17.241375 1.646729 14.944855 11.963451 4.576600 0.000000 -36.877800 13.141512 0.834843 -2.503853 -4.169880 9.942799 19.017826 0.088007 -2.779235 18.967438 -2.498032 -10.424375 -8.459624 -0.484000 -0.000000 -57.283100
2.355279 17.117103 -2.027646 126.257175 -66.925830 -143.936569 -8.173704 -3.131217 -0.176545 -0.617307 1.414745 -40.807274 -1.560074 0.545132 18.930093 1.626612 14.778609 11.241524 4.319600 0.000000 -36.480099 13.087446 0.740121 -2.410197 -4.148629 9.720967 18.926110 0.134309 -2.738232 18.827946 -2.380460 -9.868250 -8.497595 -0.439800 0.000000 -57.452900
